<svg width="20" height="20" viewBox="0 0 20 20" fill="none" xmlns="http://www.w3.org/2000/svg">
<g clip-path="url(#clip0_542_5481)">
<path d="M10.6916 1.8168C10.4744 1.71776 10.2385 1.6665 9.99989 1.6665C9.76123 1.6665 9.52536 1.71776 9.30822 1.8168L2.16656 5.0668C2.01868 5.132 1.89295 5.2388 1.80469 5.37418C1.71643 5.50956 1.66943 5.66769 1.66943 5.8293C1.66943 5.99091 1.71643 6.14904 1.80469 6.28442C1.89295 6.4198 2.01868 6.5266 2.16656 6.5918L9.31656 9.85013C9.53369 9.94918 9.76956 10.0004 10.0082 10.0004C10.2469 10.0004 10.4828 9.94918 10.6999 9.85013L17.8499 6.60013C17.9978 6.53493 18.1235 6.42814 18.2118 6.29275C18.3 6.15737 18.347 5.99925 18.347 5.83763C18.347 5.67602 18.3 5.5179 18.2118 5.38251C18.1235 5.24713 17.9978 5.14034 17.8499 5.07513L10.6916 1.8168Z" stroke="#71717A" stroke-width="1.66667" stroke-linecap="round" stroke-linejoin="round"/>
<path d="M18.3334 14.7085L10.6917 18.1752C10.4746 18.2742 10.2387 18.3255 10.0001 18.3255C9.76142 18.3255 9.52555 18.2742 9.30841 18.1752L1.66675 14.7085" stroke="#71717A" stroke-width="1.66667" stroke-linecap="round" stroke-linejoin="round"/>
<path d="M18.3334 10.5415L10.6917 14.0082C10.4746 14.1072 10.2387 14.1585 10.0001 14.1585C9.76142 14.1585 9.52555 14.1072 9.30841 14.0082L1.66675 10.5415" stroke="#71717A" stroke-width="1.66667" stroke-linecap="round" stroke-linejoin="round"/>
</g>
<defs>
<clipPath id="clip0_542_5481">
<rect width="20" height="20" fill="white"/>
</clipPath>
</defs>
</svg>
