<svg width="83" height="87" viewBox="0 0 83 87" fill="none" xmlns="http://www.w3.org/2000/svg">
<path d="M3 46.9976H19.6448C20.2123 46.9976 20.7531 46.7566 21.1324 46.3344L38.6136 26.8811C39.8392 25.5172 42.1012 26.3842 42.1012 28.2179V61.7619C42.1012 63.5859 44.343 64.458 45.5755 63.1134L59.7537 47.6462C60.1326 47.2329 60.6674 46.9976 61.228 46.9976H78" stroke="#09090B" stroke-width="5" stroke-linecap="round" stroke-linejoin="round"/>
<path d="M3 34V26C3 17.1634 10.1634 10 19 10H62C70.8366 10 78 17.1634 78 26V34" stroke="#09090B" stroke-width="5" stroke-linecap="round" stroke-linejoin="round"/>
<path d="M3 60V68C3 76.8366 10.1634 84 19 84H62C70.8366 84 78 76.8366 78 68V60" stroke="#09090B" stroke-width="5" stroke-linecap="round" stroke-linejoin="round"/>
<circle cx="71" cy="12" r="10.5" fill="#09090B" stroke="white" stroke-width="3"/>
</svg>
